<?xml version="1.0" encoding="UTF-8"?>
<!DOCTYPE svg PUBLIC "-//W3C//DTD SVG 1.1//EN" "http://www.w3.org/Graphics/SVG/1.1/DTD/svg11.dtd">
<svg xmlns="http://www.w3.org/2000/svg" version="1.1" width="240px" height="59px" style="shape-rendering:geometricPrecision; text-rendering:geometricPrecision; image-rendering:optimizeQuality; fill-rule:evenodd; clip-rule:evenodd" xmlns:xlink="http://www.w3.org/1999/xlink">
<g><path style="opacity:0.004" fill="#000000" d="M 85.5,6.5 C 84.8333,5.16667 84.8333,5.16667 85.5,6.5 Z"/></g>
<g><path style="opacity:0.004" fill="#000000" d="M 117.5,5.5 C 118.833,6.16667 118.833,6.16667 117.5,5.5 Z"/></g>
<g><path style="opacity:0.004" fill="#000000" d="M 127.5,6.5 C 126.833,5.16667 126.833,5.16667 127.5,6.5 Z"/></g>
<g><path style="opacity:0.008" fill="#000000" d="M 194.5,5.5 C 195.833,6.16667 195.833,6.16667 194.5,5.5 Z"/></g>
<g><path style="opacity:0.004" fill="#000000" d="M 120.5,7.5 C 119.833,6.16667 119.833,6.16667 120.5,7.5 Z"/></g>
<g><path style="opacity:0.004" fill="#000000" d="M 125.5,7.5 C 124.833,6.16667 124.833,6.16667 125.5,7.5 Z"/></g>
<g><path style="opacity:0.872" fill="#070607" d="M 127.5,6.5 C 136.251,6.19679 144.918,6.53013 153.5,7.5C 153.131,9.44121 152.464,11.2745 151.5,13C 146.845,13.4992 142.179,13.6658 137.5,13.5C 137.67,14.8221 137.337,15.9887 136.5,17C 141.087,17.7991 145.587,17.6324 150,16.5C 150.513,17.5266 151.013,18.5266 151.5,19.5C 149.031,20.6067 148.031,22.6067 148.5,25.5C 143.5,25.5 138.5,25.5 133.5,25.5C 133.67,26.8221 133.337,27.9887 132.5,29C 137.74,29.352 142.74,29.5187 147.5,29.5C 146.662,29.8417 146.328,30.5084 146.5,31.5C 145.596,32.209 145.263,33.209 145.5,34.5C 144.662,34.8417 144.328,35.5084 144.5,36.5C 135.779,36.7754 127.113,36.4421 118.5,35.5C 117.962,33.8828 117.629,32.2161 117.5,30.5C 119.589,26.4985 120.922,22.1652 121.5,17.5C 122.67,15.3498 123.67,13.0164 124.5,10.5C 124.376,9.89333 124.043,9.55999 123.5,9.5C 124.167,8.83333 124.833,8.16667 125.5,7.5C 126.492,7.67158 127.158,7.33825 127.5,6.5 Z"/></g>
<g><path style="opacity:0.004" fill="#000000" d="M 153.5,6.5 C 154.833,7.16667 154.833,7.16667 153.5,6.5 Z"/></g>
<g><path style="opacity:0.904" fill="#0e0404" d="M 167.5,6.5 C 176.5,6.5 185.5,6.5 194.5,6.5C 194.296,9.51763 193.963,12.5176 193.5,15.5C 188.639,15.0634 183.972,15.5634 179.5,17C 182.553,17.1786 185.553,17.6786 188.5,18.5C 187.1,21.0354 186.1,23.702 185.5,26.5C 182.167,26.5 178.833,26.5 175.5,26.5C 174.663,30.1763 173.33,33.6763 171.5,37C 165.843,37.4994 160.176,37.6661 154.5,37.5C 155.678,36.0014 157.345,35.0014 159.5,34.5C 159.137,33.8165 158.804,33.1499 158.5,32.5C 159.167,32.5 159.5,32.1667 159.5,31.5C 160.429,30.6851 161.429,29.8518 162.5,29C 162.167,28.6667 161.833,28.3333 161.5,28C 163.045,26.3123 164.045,24.3123 164.5,22C 163.366,20.984 163.699,20.3173 165.5,20C 164.748,19.3292 164.414,18.4959 164.5,17.5C 165.067,16.5798 164.401,16.2465 162.5,16.5C 164.369,15.8354 166.369,15.1687 168.5,14.5C 167.438,13.2299 166.438,12.0633 165.5,11C 166.448,10.5172 167.448,10.3505 168.5,10.5C 168.567,9.04125 168.234,7.70792 167.5,6.5 Z"/></g>
<g><path style="opacity:0.851" fill="#020202" d="M 218.5,7.5 C 218.721,10.0673 219.388,12.4006 220.5,14.5C 221.783,22.9136 223.449,31.2469 225.5,39.5C 219.158,39.6662 212.825,39.4995 206.5,39C 205.939,37.324 204.939,35.9906 203.5,35C 203.833,34.6667 204.167,34.3333 204.5,34C 200.5,33.3333 196.5,33.3333 192.5,34C 191.619,34.7083 190.953,35.5416 190.5,36.5C 189.662,36.8417 189.328,37.5084 189.5,38.5C 188.833,38.5 188.5,38.8333 188.5,39.5C 185.833,39.5 183.167,39.5 180.5,39.5C 180.461,38.4168 180.127,37.4168 179.5,36.5C 183.324,34.5099 185.991,31.5099 187.5,27.5C 190.323,24.5249 192.656,21.1916 194.5,17.5C 195.167,17.5 195.5,17.1667 195.5,16.5C 196.429,15.0639 197.595,13.7305 199,12.5C 198.872,10.555 199.038,8.72163 199.5,7C 205.915,6.20983 212.248,6.37649 218.5,7.5 Z M 198.5,25.5 C 198.833,28.1667 199.167,28.1667 199.5,25.5C 200.167,25.5 200.5,25.1667 200.5,24.5C 201.833,23.8333 201.833,23.1667 200.5,22.5C 200.393,20.6214 200.893,20.2881 202,21.5C 202.567,24.1677 203.067,26.8344 203.5,29.5C 200.813,29.6641 198.146,29.4974 195.5,29C 196.163,27.4815 197.163,26.3149 198.5,25.5 Z M 200.5,22.5 C 200.5,23.1667 200.5,23.8333 200.5,24.5C 199.833,24.5 199.5,24.8333 199.5,25.5C 199.167,25.5 198.833,25.5 198.5,25.5C 198.427,23.9731 199.094,22.9731 200.5,22.5 Z"/></g>
<g><path style="opacity:0.004" fill="#000000" d="M 218.5,6.5 C 219.833,7.16667 219.833,7.16667 218.5,6.5 Z"/></g>
<g><path style="opacity:0.815" fill="#020202" d="M 60.5,8.5 C 61.0241,10.3057 61.6908,11.9724 62.5,13.5C 62.4203,16.7814 63.087,19.7814 64.5,22.5C 65.0067,26.8595 65.6734,31.1928 66.5,35.5C 61.0735,35.7825 55.7401,35.4491 50.5,34.5C 50.67,33.1779 50.3366,32.0113 49.5,31C 45.9733,30.1925 42.6399,30.3592 39.5,31.5C 38.8333,31.5 38.5,31.8333 38.5,32.5C 37.6618,32.8417 37.3284,33.5084 37.5,34.5C 36.8333,34.5 36.5,34.8333 36.5,35.5C 27.8333,35.5 19.1667,35.5 10.5,35.5C 10.5,33.8333 10.5,32.1667 10.5,30.5C 12.2795,25.7221 13.6128,20.7221 14.5,15.5C 15.8333,14.1667 15.8333,12.8333 14.5,11.5C 14.5,10.8333 14.5,10.1667 14.5,9.5C 19.1667,9.5 23.8333,9.5 28.5,9.5C 27.375,16.2084 26.0416,22.8751 24.5,29.5C 23.9569,29.56 23.6236,29.8933 23.5,30.5C 26.0272,31.2136 28.5272,31.8803 31,32.5C 33.51,28.8045 36.01,25.1379 38.5,21.5C 39.9063,21.0269 40.573,20.0269 40.5,18.5C 42.6408,17.2449 43.3074,15.5782 42.5,13.5C 43.5,12.8333 44.5,12.1667 45.5,11.5C 44.5721,10.2322 44.4054,8.89888 45,7.5C 50.0717,8.47135 55.2384,8.80468 60.5,8.5 Z M 40.5,18.5 C 40.573,20.0269 39.9063,21.0269 38.5,21.5C 38.427,19.9731 39.0937,18.9731 40.5,18.5 Z M 46.5,19.5 C 47.9238,21.5145 48.5905,23.8478 48.5,26.5C 46.4727,26.6621 44.4727,26.4955 42.5,26C 44.2318,24.0281 45.5652,21.8614 46.5,19.5 Z"/></g>
<g><path style="opacity:0.004" fill="#000000" d="M 60.5,7.5 C 61.8333,8.16667 61.8333,8.16667 60.5,7.5 Z"/></g>
<g><path style="opacity:0.004" fill="#000000" d="M 120.5,7.5 C 121.833,8.16667 121.833,8.16667 120.5,7.5 Z"/></g>
<g><path style="opacity:0.008" fill="#000000" d="M 14.5,9.5 C 13.8333,8.16667 13.8333,8.16667 14.5,9.5 Z"/></g>
<g><path style="opacity:0.004" fill="#000000" d="M 28.5,8.5 C 29.8333,9.16667 29.8333,9.16667 28.5,8.5 Z"/></g>
<g><path style="opacity:0.004" fill="#000000" d="M 155.5,9.5 C 154.833,8.16667 154.833,8.16667 155.5,9.5 Z"/></g>
<g><path style="opacity:0.004" fill="#000000" d="M 85.5,9.5 C 86.8333,10.1667 86.8333,10.1667 85.5,9.5 Z"/></g>
<g><path style="opacity:0.004" fill="#000000" d="M 123.5,9.5 C 122.833,10.1667 122.833,10.1667 123.5,9.5 Z"/></g>
<g><path style="opacity:1" fill="#862118" d="M 167.5,6.5 C 168.234,7.70792 168.567,9.04125 168.5,10.5C 167.448,10.3505 166.448,10.5172 165.5,11C 166.438,12.0633 167.438,13.2299 168.5,14.5C 166.369,15.1687 164.369,15.8354 162.5,16.5C 161.957,16.44 161.624,16.1067 161.5,15.5C 162.729,14.7189 164.062,14.2189 165.5,14C 162.628,11.4784 162.962,9.64506 166.5,8.5C 165.833,8.16667 165.167,7.83333 164.5,7.5C 162.484,8.17761 160.484,8.84428 158.5,9.5C 158.577,8.25025 159.244,7.41691 160.5,7C 162.81,6.50335 165.143,6.33669 167.5,6.5 Z"/></g>
<g><path style="opacity:0.004" fill="#000000" d="M 14.5,11.5 C 14.631,12.2389 14.4643,12.9056 14,13.5C 13.3083,12.5632 13.475,11.8966 14.5,11.5 Z"/></g>
<g><path style="opacity:0.063" fill="#5f2a26" d="M 155.5,9.5 C 156.5,9.5 157.5,9.5 158.5,9.5C 158.414,10.4959 158.748,11.3292 159.5,12C 158.552,12.4828 157.552,12.6495 156.5,12.5C 156.167,12.5 155.833,12.5 155.5,12.5C 155.5,11.5 155.5,10.5 155.5,9.5 Z"/></g>
<g><path style="opacity:0.004" fill="#000000" d="M 62.5,12.5 C 63.8333,13.1667 63.8333,13.1667 62.5,12.5 Z"/></g>
<g><path style="opacity:0.004" fill="#000000" d="M 86.5,13.5 C 85.8333,12.1667 85.8333,12.1667 86.5,13.5 Z"/></g>
<g><path style="opacity:0.004" fill="#000000" d="M 155.5,12.5 C 154.833,13.1667 154.833,13.1667 155.5,12.5 Z"/></g>
<g><path style="opacity:0.004" fill="#000000" d="M 220.5,13.5 C 221.833,14.1667 221.833,14.1667 220.5,13.5 Z"/></g>
<g><path style="opacity:0.004" fill="#000000" d="M 14.5,15.5 C 13.8333,14.1667 13.8333,14.1667 14.5,15.5 Z"/></g>
<g><path style="opacity:0.005" fill="#000000" d="M 195.5,16.5 C 194.833,16.5 194.5,16.8333 194.5,17.5C 193.662,17.1583 193.328,16.4916 193.5,15.5C 194.925,13.9689 195.591,14.3023 195.5,16.5 Z"/></g>
<g><path style="opacity:0.004" fill="#000000" d="M 40.5,15.5 C 41.8333,16.1667 41.8333,16.1667 40.5,15.5 Z"/></g>
<g><path style="opacity:0.004" fill="#000000" d="M 121.5,17.5 C 120.833,16.1667 120.833,16.1667 121.5,17.5 Z"/></g>
<g><path style="opacity:0.004" fill="#000000" d="M 119.5,18.5 C 120.833,19.1667 120.833,19.1667 119.5,18.5 Z"/></g>
<g><path style="opacity:0.004" fill="#000000" d="M 84.5,20.5 C 83.8333,19.1667 83.8333,19.1667 84.5,20.5 Z"/></g>
<g><path style="opacity:0.463" fill="#982e28" d="M 157.5,13.5 C 158.376,13.3691 159.043,13.7025 159.5,14.5C 158.5,15.1667 157.5,15.8333 156.5,16.5C 157.246,17.7362 157.579,19.0695 157.5,20.5C 155.585,20.2155 153.919,20.5489 152.5,21.5C 151.662,21.1583 151.328,20.4916 151.5,19.5C 152.873,19.6567 154.207,19.49 155.5,19C 154.529,17.7964 153.529,17.2964 152.5,17.5C 153.654,15.4352 155.32,14.1019 157.5,13.5 Z"/></g>
<g><path style="opacity:0.992" fill="#ee2215" d="M 162.5,16.5 C 164.401,16.2465 165.067,16.5798 164.5,17.5C 162.946,18.693 161.279,19.8596 159.5,21C 160.624,21.2492 161.624,21.7492 162.5,22.5C 161.176,23.9347 159.51,24.9347 157.5,25.5C 158.246,26.7362 158.579,28.0695 158.5,29.5C 157.325,29.281 156.325,29.6143 155.5,30.5C 156.689,31.4287 158.022,31.762 159.5,31.5C 159.5,32.1667 159.167,32.5 158.5,32.5C 156.787,33.305 155.121,34.305 153.5,35.5C 151.604,36.4656 149.604,36.7989 147.5,36.5C 147.167,36.5 146.833,36.5 146.5,36.5C 147.919,35.5489 149.585,35.2155 151.5,35.5C 151.657,34.1266 151.49,32.7932 151,31.5C 150.617,32.056 150.117,32.3893 149.5,32.5C 149.389,31.8826 149.056,31.3826 148.5,31C 150.256,30.7978 151.922,30.2978 153.5,29.5C 153.043,28.7025 152.376,28.3691 151.5,28.5C 151.5,28.1667 151.5,27.8333 151.5,27.5C 153.796,27.1959 154.129,26.1959 152.5,24.5C 152.833,24.5 153.167,24.5 153.5,24.5C 157.522,22.6314 157.189,21.6314 152.5,21.5C 153.919,20.5489 155.585,20.2155 157.5,20.5C 157.579,19.0695 157.246,17.7362 156.5,16.5C 157.5,15.8333 158.5,15.1667 159.5,14.5C 159.043,13.7025 158.376,13.3691 157.5,13.5C 156.833,13.5 156.5,13.1667 156.5,12.5C 157.552,12.6495 158.552,12.4828 159.5,12C 158.748,11.3292 158.414,10.4959 158.5,9.5C 160.484,8.84428 162.484,8.17761 164.5,7.5C 165.167,7.83333 165.833,8.16667 166.5,8.5C 162.962,9.64506 162.628,11.4784 165.5,14C 164.062,14.2189 162.729,14.7189 161.5,15.5C 161.624,16.1067 161.957,16.44 162.5,16.5 Z"/></g>
<g><path style="opacity:0.004" fill="#000000" d="M 64.5,21.5 C 65.8333,22.1667 65.8333,22.1667 64.5,21.5 Z"/></g>
<g><path style="opacity:0.004" fill="#000000" d="M 26.5,22.5 C 27.8333,23.1667 27.8333,23.1667 26.5,22.5 Z"/></g>
<g><path style="opacity:0.796" fill="#86342d" d="M 152.5,21.5 C 157.189,21.6314 157.522,22.6314 153.5,24.5C 152.89,23.609 152.557,22.609 152.5,21.5 Z"/></g>
<g><path style="opacity:0.008" fill="#000000" d="M 117.5,24.5 C 118.833,25.1667 118.833,25.1667 117.5,24.5 Z"/></g>
<g><path style="opacity:0.004" fill="#000000" d="M 117.5,25.5 C 116.833,26.1667 116.833,26.1667 117.5,25.5 Z"/></g>
<g><path style="opacity:0.965" fill="#914b40" d="M 152.5,24.5 C 154.129,26.1959 153.796,27.1959 151.5,27.5C 148.662,25.6941 148.995,24.6941 152.5,24.5 Z"/></g>
<g><path style="opacity:0.004" fill="#000000" d="M 116.5,26.5 C 115.833,27.1667 115.833,27.1667 116.5,26.5 Z"/></g>
<g><path style="opacity:0.005" fill="#000000" d="M 185.5,26.5 C 186.492,26.3284 187.158,26.6618 187.5,27.5C 186.075,29.0311 185.409,28.6977 185.5,26.5 Z"/></g>
<g><path style="opacity:0.004" fill="#000000" d="M 176.5,27.5 C 177.833,28.1667 177.833,28.1667 176.5,27.5 Z"/></g>
<g><path style="opacity:0.004" fill="#000000" d="M 10.5,30.5 C 9.83333,29.1667 9.83333,29.1667 10.5,30.5 Z"/></g>
<g><path style="opacity:0.004" fill="#000000" d="M 24.5,29.5 C 25.8333,30.1667 25.8333,30.1667 24.5,29.5 Z"/></g>
<g><path style="opacity:0.004" fill="#000000" d="M 30.5,29.5 C 31.8333,30.1667 31.8333,30.1667 30.5,29.5 Z"/></g>
<g><path style="opacity:0.004" fill="#000000" d="M 117.5,30.5 C 116.833,29.1667 116.833,29.1667 117.5,30.5 Z"/></g>
<g><path style="opacity:1" fill="#711410" d="M 164.5,17.5 C 164.414,18.4959 164.748,19.3292 165.5,20C 163.699,20.3173 163.366,20.984 164.5,22C 164.045,24.3123 163.045,26.3123 161.5,28C 161.833,28.3333 162.167,28.6667 162.5,29C 161.429,29.8518 160.429,30.6851 159.5,31.5C 158.022,31.762 156.689,31.4287 155.5,30.5C 156.325,29.6143 157.325,29.281 158.5,29.5C 158.579,28.0695 158.246,26.7362 157.5,25.5C 159.51,24.9347 161.176,23.9347 162.5,22.5C 161.624,21.7492 160.624,21.2492 159.5,21C 161.279,19.8596 162.946,18.693 164.5,17.5 Z"/></g>
<g><path style="opacity:0.004" fill="#000000" d="M 113.5,30.5 C 114.833,31.1667 114.833,31.1667 113.5,30.5 Z"/></g>
<g><path style="opacity:0.004" fill="#000000" d="M 39.5,31.5 C 40.8333,32.1667 40.8333,32.1667 39.5,31.5 Z"/></g>
<g><path style="opacity:0.004" fill="#441e19" d="M 151.5,28.5 C 152.376,28.3691 153.043,28.7025 153.5,29.5C 151.922,30.2978 150.256,30.7978 148.5,31C 149.056,31.3826 149.389,31.8826 149.5,32.5C 148.209,32.7373 147.209,32.404 146.5,31.5C 147.338,31.1583 147.672,30.4916 147.5,29.5C 149.099,29.7678 150.432,29.4345 151.5,28.5 Z"/></g>
<g><path style="opacity:0.006" fill="#000000" d="M 38.5,32.5 C 38.8333,32.5 39.1667,32.5 39.5,32.5C 39.6716,33.4916 39.3382,34.1583 38.5,34.5C 38.5,33.8333 38.5,33.1667 38.5,32.5 Z"/></g>
<g><path style="opacity:0.004" fill="#000000" d="M 174.5,32.5 C 175.833,33.1667 175.833,33.1667 174.5,32.5 Z"/></g>
<g><path style="opacity:0.908" fill="#090809" d="M 85.5,6.5 C 96.1667,6.5 106.833,6.5 117.5,6.5C 117.842,7.33825 118.508,7.67158 119.5,7.5C 120.333,12.2176 119.833,16.8842 118,21.5C 116.328,24.3371 114.161,26.6704 111.5,28.5C 111.942,29.7387 112.609,30.7387 113.5,31.5C 114.218,33.1368 114.384,34.8034 114,36.5C 109.599,35.5333 105.099,35.2 100.5,35.5C 99.6995,33.104 98.6995,30.7707 97.5,28.5C 96.6816,30.1083 96.0149,31.7749 95.5,33.5C 95.6236,34.1067 95.9569,34.44 96.5,34.5C 96.631,35.2389 96.4643,35.9056 96,36.5C 91.2633,35.5308 86.43,35.1975 81.5,35.5C 82.3433,30.4616 83.3433,25.4616 84.5,20.5C 85.6118,18.4006 86.2785,16.0673 86.5,13.5C 87.8779,11.0298 87.5446,8.69646 85.5,6.5 Z M 101.5,10.5 C 103.288,10.2148 104.955,10.5481 106.5,11.5C 105.335,15.4943 104.168,19.4943 103,23.5C 101.578,23.4057 100.078,23.0724 98.5,22.5C 99.8156,18.571 100.816,14.571 101.5,10.5 Z"/></g>
<g><path style="opacity:1" fill="#1e1d1e" d="M 107.5,9.5 C 110.64,8.35916 113.973,8.1925 117.5,9C 118.621,16.8046 115.954,22.9713 109.5,27.5C 110.167,29.1667 110.833,30.8333 111.5,32.5C 105.169,34.8945 100.835,33.0611 98.5,27C 99.7604,25.887 100.927,25.7203 102,26.5C 103.074,25.3816 104.24,24.3816 105.5,23.5C 106.393,19.1445 107.393,14.8111 108.5,10.5C 108.376,9.89333 108.043,9.55999 107.5,9.5 Z"/></g>
<g><path style="opacity:1" fill="#1d1d1d" d="M 89.5,8.5 C 93.5138,8.33449 97.5138,8.50115 101.5,9C 100.151,9.77241 99.3176,10.9391 99,12.5C 98.4024,16.0571 97.569,19.5571 96.5,23C 96.7355,23.8732 97.0688,24.7065 97.5,25.5C 96.0521,27.6667 94.8854,30 94,32.5C 90.5447,33.7914 87.0447,33.7914 83.5,32.5C 86.7512,24.6135 88.7512,16.6135 89.5,8.5 Z"/></g>
<g><path style="opacity:0.004" fill="#000000" d="M 96.5,33.5 C 97.8333,34.1667 97.8333,34.1667 96.5,33.5 Z"/></g>
<g><path style="opacity:0.008" fill="#000000" d="M 37.5,34.5 C 37.8333,34.5 38.1667,34.5 38.5,34.5C 38.3147,35.1701 37.9813,35.1701 37.5,34.5 Z"/></g>
<g><path style="opacity:0.004" fill="#000000" d="M 50.5,34.5 C 50.631,35.2389 50.4643,35.9056 50,36.5C 49.3083,35.5632 49.475,34.8966 50.5,34.5 Z"/></g>
<g><path style="opacity:0.612" fill="#8f2c23" d="M 146.5,36.5 C 146.167,36.5 145.833,36.5 145.5,36.5C 145.5,35.8333 145.5,35.1667 145.5,34.5C 147.483,34.8432 148.817,34.1765 149.5,32.5C 150.117,32.3893 150.617,32.056 151,31.5C 151.49,32.7932 151.657,34.1266 151.5,35.5C 149.585,35.2155 147.919,35.5489 146.5,36.5 Z"/></g>
<g><path style="opacity:0.004" fill="#000000" d="M 10.5,35.5 C 9.83333,36.1667 9.83333,36.1667 10.5,35.5 Z"/></g>
<g><path style="opacity:0.008" fill="#000000" d="M 36.5,35.5 C 36.8333,35.5 37.1667,35.5 37.5,35.5C 37.3147,36.1701 36.9813,36.1701 36.5,35.5 Z"/></g>
<g><path style="opacity:0.004" fill="#000000" d="M 66.5,35.5 C 67.8333,36.1667 67.8333,36.1667 66.5,35.5 Z"/></g>
<g><path style="opacity:0.004" fill="#000000" d="M 81.5,35.5 C 80.8333,36.1667 80.8333,36.1667 81.5,35.5 Z"/></g>
<g><path style="opacity:0.004" fill="#000000" d="M 100.5,35.5 C 99.8333,36.1667 99.8333,36.1667 100.5,35.5 Z"/></g>
<g><path style="opacity:0.008" fill="#000000" d="M 118.5,35.5 C 118.5,35.8333 118.5,36.1667 118.5,36.5C 117.83,36.0187 117.83,35.6853 118.5,35.5 Z"/></g>
<g><path style="opacity:0.004" fill="#000000" d="M 118.5,36.5 C 119.833,37.1667 119.833,37.1667 118.5,36.5 Z"/></g>
<g><path style="opacity:0.012" fill="#000000" d="M 144.5,36.5 C 144.833,36.5 145.167,36.5 145.5,36.5C 145.315,37.1701 144.981,37.1701 144.5,36.5 Z"/></g>
<g><path style="opacity:0.216" fill="#8a1d17" d="M 158.5,32.5 C 158.804,33.1499 159.137,33.8165 159.5,34.5C 157.345,35.0014 155.678,36.0014 154.5,37.5C 151.941,37.8016 149.607,37.4682 147.5,36.5C 149.604,36.7989 151.604,36.4656 153.5,35.5C 155.121,34.305 156.787,33.305 158.5,32.5 Z"/></g>
<g><path style="opacity:0.004" fill="#000000" d="M 190.5,36.5 C 192.933,36.7856 192.933,37.4523 190.5,38.5C 190.5,37.8333 190.5,37.1667 190.5,36.5 Z"/></g>
<g><path style="opacity:0.004" fill="#000000" d="M 172.5,37.5 C 173.833,38.1667 173.833,38.1667 172.5,37.5 Z"/></g>
<g><path style="opacity:0.008" fill="#000000" d="M 189.5,38.5 C 189.833,38.5 190.167,38.5 190.5,38.5C 190.315,39.1701 189.981,39.1701 189.5,38.5 Z"/></g>
<g><path style="opacity:0.008" fill="#000000" d="M 180.5,39.5 C 179.833,40.1667 179.833,40.1667 180.5,39.5 Z"/></g>
<g><path style="opacity:0.008" fill="#000000" d="M 188.5,39.5 C 188.833,39.5 189.167,39.5 189.5,39.5C 189.315,40.1701 188.981,40.1701 188.5,39.5 Z"/></g>
<g><path style="opacity:0.004" fill="#000000" d="M 204.5,39.5 C 205.833,40.1667 205.833,40.1667 204.5,39.5 Z"/></g>
<g><path style="opacity:0.004" fill="#000000" d="M 225.5,39.5 C 226.833,40.1667 226.833,40.1667 225.5,39.5 Z"/></g>
<g><path style="opacity:0.365" fill="#020201" d="M 143.5,43.5 C 146.408,42.4309 149.408,42.2642 152.5,43C 151.244,43.4169 150.577,44.2502 150.5,45.5C 151.95,46.6576 152.95,46.1576 153.5,44C 154.448,43.5172 155.448,43.3505 156.5,43.5C 156.98,46.4432 157.98,49.1098 159.5,51.5C 159.598,54.2476 158.598,54.9143 156.5,53.5C 156.38,52.4138 155.713,51.7472 154.5,51.5C 153.287,51.7472 152.62,52.4138 152.5,53.5C 151.542,53.9528 150.708,54.6195 150,55.5C 150,53.5 150,51.5 150,49.5C 148.989,50.3366 147.822,50.67 146.5,50.5C 146.723,53.1142 145.556,54.7809 143,55.5C 140.509,54.7798 138.009,54.1131 135.5,53.5C 135.335,50.1501 135.502,46.8168 136,43.5C 138.333,42.8333 140.667,42.1667 143,41.5C 143.464,42.0944 143.631,42.7611 143.5,43.5 Z M 143.5,43.5 C 143.665,46.8499 143.498,50.1832 143,53.5C 141.47,52.0798 139.637,51.0798 137.5,50.5C 139.167,49.8333 140.833,49.1667 142.5,48.5C 142.333,48.1667 142.167,47.8333 142,47.5C 140.308,47.3238 138.808,46.8238 137.5,46C 139.845,45.7635 141.845,44.9302 143.5,43.5 Z M 150.5,45.5 C 149.573,47.4759 148.24,47.8092 146.5,46.5C 147.689,45.5713 149.022,45.238 150.5,45.5 Z"/></g>
<g><path style="opacity:0.004" fill="#000000" d="M 22.5,42.5 C 23.8333,43.1667 23.8333,43.1667 22.5,42.5 Z"/></g>
<g><path style="opacity:0.004" fill="#000000" d="M 29.5,43.5 C 28.8333,42.1667 28.8333,42.1667 29.5,43.5 Z"/></g>
<g><path style="opacity:0.008" fill="#000000" d="M 33.5,43.5 C 32.8333,42.1667 32.8333,42.1667 33.5,43.5 Z"/></g>
<g><path style="opacity:0.004" fill="#000000" d="M 40.5,43.5 C 39.8333,42.1667 39.8333,42.1667 40.5,43.5 Z"/></g>
<g><path style="opacity:0.427" fill="#020202" d="M 45.5,46.5 C 43.3161,45.0171 41.9827,45.6837 41.5,48.5C 41.9827,51.3163 43.3161,51.9829 45.5,50.5C 46.1667,50.1667 46.8333,49.8333 47.5,49.5C 47.5,50.5 47.5,51.5 47.5,52.5C 46.8333,52.5 46.5,52.8333 46.5,53.5C 44.5487,54.6414 42.5487,54.6414 40.5,53.5C 39.5691,51.9668 38.9024,50.3002 38.5,48.5C 39.1869,46.8228 39.8535,45.1561 40.5,43.5C 44.1426,41.7157 46.8093,42.7157 48.5,46.5C 47.7666,47.087 46.7666,47.087 45.5,46.5 Z"/></g>
<g><path style="opacity:0.004" fill="#000000" d="M 48.5,43.5 C 47.8333,42.1667 47.8333,42.1667 48.5,43.5 Z"/></g>
<g><path style="opacity:0.004" fill="#000000" d="M 50.5,43.5 C 49.8333,42.1667 49.8333,42.1667 50.5,43.5 Z"/></g>
<g><path style="opacity:0.004" fill="#000000" d="M 54.5,42.5 C 55.8333,43.1667 55.8333,43.1667 54.5,42.5 Z"/></g>
<g><path style="opacity:0.004" fill="#000000" d="M 57.5,44.5 C 56.475,44.1034 56.3083,43.4368 57,42.5C 57.4643,43.0944 57.631,43.7611 57.5,44.5 Z"/></g>
<g><path style="opacity:0.426" fill="#010101" d="M 64.5,43.5 C 64.4914,45.3084 64.9914,46.9751 66,48.5C 66.4828,47.552 66.6495,46.552 66.5,45.5C 67.3382,45.1583 67.6716,44.4916 67.5,43.5C 68.8221,43.33 69.9887,43.6634 71,44.5C 72.0146,47.5577 73.1813,50.5577 74.5,53.5C 74.1667,53.8333 73.8333,54.1667 73.5,54.5C 72.1255,53.2887 70.6255,52.2887 69,51.5C 67.9701,51.8361 67.4701,52.5028 67.5,53.5C 66.2794,54.0283 65.1127,54.695 64,55.5C 63.6667,54.8333 63.3333,54.1667 63,53.5C 61.0412,54.0439 59.2079,54.3773 57.5,54.5C 56.391,54.4431 55.391,54.1098 54.5,53.5C 54.38,52.4138 53.7133,51.7472 52.5,51.5C 50.8303,52.9948 48.997,54.3282 47,55.5C 46.5357,54.9056 46.369,54.2389 46.5,53.5C 47.1667,53.5 47.5,53.1667 47.5,52.5C 48.8333,51.5 48.8333,50.5 47.5,49.5C 49.539,48.089 50.539,46.089 50.5,43.5C 51.552,43.3505 52.552,43.5172 53.5,44C 54.6087,45.8761 55.6087,47.7095 56.5,49.5C 58.2251,50.905 60.2251,51.405 62.5,51C 60.9698,49.8797 59.3032,49.0464 57.5,48.5C 56.5946,47.0357 56.5946,45.7024 57.5,44.5C 58.4822,43.8592 59.4822,43.1925 60.5,42.5C 61.7362,43.2458 63.0695,43.5792 64.5,43.5 Z M 63.5,47.5 C 61.8967,47.6882 60.5634,47.1882 59.5,46C 61.3524,45.2274 62.6857,45.7274 63.5,47.5 Z M 57.5,48.5 C 59.3032,49.0464 60.9698,49.8797 62.5,51C 60.2251,51.405 58.2251,50.905 56.5,49.5C 57.1667,49.5 57.5,49.1667 57.5,48.5 Z"/></g>
<g><path style="opacity:0.004" fill="#000000" d="M 64.5,42.5 C 65.8333,43.1667 65.8333,43.1667 64.5,42.5 Z"/></g>
<g><path style="opacity:0.004" fill="#000000" d="M 67.5,43.5 C 66.8333,42.1667 66.8333,42.1667 67.5,43.5 Z"/></g>
<g><path style="opacity:0.004" fill="#000000" d="M 71.5,42.5 C 72.8333,43.1667 72.8333,43.1667 71.5,42.5 Z"/></g>
<g><path style="opacity:0.004" fill="#000000" d="M 77.5,43.5 C 76.8333,42.1667 76.8333,42.1667 77.5,43.5 Z"/></g>
<g><path style="opacity:0.404" fill="#010101" d="M 85.5,44.5 C 86.8333,47.1667 86.8333,49.8333 85.5,52.5C 84.8333,52.5 84.5,52.8333 84.5,53.5C 82.1256,54.6861 79.7922,54.6861 77.5,53.5C 77.5,50.1667 77.5,46.8333 77.5,43.5C 80.321,42.2 82.9876,42.5333 85.5,44.5 Z M 80.5,45.5 C 85.8333,47.5 85.8333,49.5 80.5,51.5C 80.5,49.5 80.5,47.5 80.5,45.5 Z"/></g>
<g><path style="opacity:0.004" fill="#000000" d="M 87.5,43.5 C 86.8333,42.1667 86.8333,42.1667 87.5,43.5 Z"/></g>
<g><path style="opacity:0.345" fill="#010101" d="M 94.5,47.5 C 94.5,48.1667 94.5,48.8333 94.5,49.5C 95.8009,50.8845 95.8009,52.3845 94.5,54C 92.5,54.6667 90.5,54.6667 88.5,54C 87.5442,50.6064 87.2108,47.1064 87.5,43.5C 89.7819,42.6103 92.1152,42.4436 94.5,43C 95.8009,44.6155 95.8009,46.1155 94.5,47.5 Z M 94.5,47.5 C 93.0245,46.738 91.6912,46.4047 90.5,46.5C 91.1667,46.1667 91.8333,45.8333 92.5,45.5C 93.7133,45.7472 94.38,46.4138 94.5,47.5 Z M 94.5,49.5 C 94.38,50.5862 93.7133,51.2528 92.5,51.5C 91.8333,51.1667 91.1667,50.8333 90.5,50.5C 91.6888,49.5713 93.0222,49.238 94.5,49.5 Z"/></g>
<g><path style="opacity:0.004" fill="#000000" d="M 99.5,43.5 C 98.8333,42.1667 98.8333,42.1667 99.5,43.5 Z"/></g>
<g><path style="opacity:0.004" fill="#000000" d="M 101.5,42.5 C 102.833,43.1667 102.833,43.1667 101.5,42.5 Z"/></g>
<g><path style="opacity:0.004" fill="#000000" d="M 108.5,43.5 C 107.833,42.1667 107.833,42.1667 108.5,43.5 Z"/></g>
<g><path style="opacity:0.004" fill="#000000" d="M 111.5,42.5 C 112.833,43.1667 112.833,43.1667 111.5,42.5 Z"/></g>
<g><path style="opacity:0.008" fill="#000000" d="M 115.5,43.5 C 114.833,42.1667 114.833,42.1667 115.5,43.5 Z"/></g>
<g><path style="opacity:0.42" fill="#010101" d="M 121.5,43.5 C 123.654,46.2455 123.987,49.2455 122.5,52.5C 121.833,52.5 121.5,52.8333 121.5,53.5C 119.865,54.8146 118.199,54.8146 116.5,53.5C 116.167,54.1667 115.833,54.8333 115.5,55.5C 114.482,54.8075 113.482,54.1408 112.5,53.5C 110.998,50.9781 109.665,50.9781 108.5,53.5C 105.609,54.4025 102.609,54.7359 99.5,54.5C 98.242,50.8004 98.242,47.1337 99.5,43.5C 100.167,43.5 100.833,43.5 101.5,43.5C 101.5,46.1667 101.5,48.8333 101.5,51.5C 103.167,51.5 104.833,51.5 106.5,51.5C 107.138,49.54 107.138,47.7067 106.5,46C 107.756,45.5831 108.423,44.7498 108.5,43.5C 109.5,43.5 110.5,43.5 111.5,43.5C 112.566,45.7014 113.233,48.0347 113.5,50.5C 115.869,50.8511 118.203,51.0178 120.5,51C 118.97,49.8797 117.303,49.0464 115.5,48.5C 114.438,46.9008 114.438,45.2341 115.5,43.5C 117.5,42.1667 119.5,42.1667 121.5,43.5 Z M 121.5,47.5 C 119.897,47.6882 118.563,47.1882 117.5,46C 119.352,45.2274 120.686,45.7274 121.5,47.5 Z"/></g>
<g><path style="opacity:0.004" fill="#000000" d="M 121.5,43.5 C 121.897,42.475 122.563,42.3083 123.5,43C 122.906,43.4643 122.239,43.631 121.5,43.5 Z"/></g>
<g><path style="opacity:0.004" fill="#000000" d="M 126.5,43.5 C 125.833,42.1667 125.833,42.1667 126.5,43.5 Z"/></g>
<g><path style="opacity:0.403" fill="#020201" d="M 135.5,53.5 C 135.631,54.2389 135.464,54.9056 135,55.5C 132.957,53.792 131.29,51.792 130,49.5C 129.506,51.1341 129.34,52.8008 129.5,54.5C 128.504,54.5858 127.671,54.2524 127,53.5C 126.502,50.1832 126.335,46.8499 126.5,43.5C 132.488,41.6311 134.821,43.6311 133.5,49.5C 133.994,51.0255 134.661,52.3588 135.5,53.5 Z M 129.5,45.5 C 131.337,45.6395 131.67,46.3061 130.5,47.5C 129.702,47.0431 129.369,46.3764 129.5,45.5 Z"/></g>
<g><path style="opacity:0.004" fill="#000000" d="M 156.5,42.5 C 157.833,43.1667 157.833,43.1667 156.5,42.5 Z"/></g>
<g><path style="opacity:0.433" fill="#010101" d="M 168.5,46.5 C 171.146,41.9882 174.146,41.6549 177.5,45.5C 176.672,46.4147 175.672,47.0814 174.5,47.5C 174.167,46.8333 173.833,46.1667 173.5,45.5C 171.717,47.0225 171.051,49.0225 171.5,51.5C 173.492,51.6715 175.158,51.0049 176.5,49.5C 177.784,52.2631 176.784,53.9297 173.5,54.5C 172.583,53.8728 171.583,53.5394 170.5,53.5C 170.5,52.8333 170.167,52.5 169.5,52.5C 169.167,51.1667 168.833,51.1667 168.5,52.5C 167.833,52.5 167.5,52.8333 167.5,53.5C 165.883,54.038 164.216,54.3713 162.5,54.5C 161.833,53.1667 160.833,52.1667 159.5,51.5C 158.694,44.7947 161.361,42.2947 167.5,44C 168.252,44.6708 168.586,45.5041 168.5,46.5 Z M 165.5,46.5 C 166.5,46.5 167.5,46.5 168.5,46.5C 168.532,48.6188 167.532,49.9522 165.5,50.5C 164.749,51.5735 163.749,51.7401 162.5,51C 162.854,49.3745 162.854,47.5412 162.5,45.5C 163.791,45.2627 164.791,45.596 165.5,46.5 Z"/></g>
<g><path style="opacity:0.004" fill="#000000" d="M 180.5,42.5 C 181.833,43.1667 181.833,43.1667 180.5,42.5 Z"/></g>
<g><path style="opacity:0.371" fill="#010101" d="M 217.5,43.5 C 217.629,45.2161 217.962,46.8828 218.5,48.5C 217.167,48.8333 217.167,49.1667 218.5,49.5C 218.586,50.4959 218.252,51.3292 217.5,52C 219.986,52.7051 219.986,53.5384 217.5,54.5C 215.167,54.5 212.833,54.5 210.5,54.5C 207.721,54.7214 205.054,54.388 202.5,53.5C 202.18,50.1016 202.513,46.7683 203.5,43.5C 208.341,42.6921 213.008,42.6921 217.5,43.5 Z M 210.5,44.5 C 210.238,45.9778 210.571,47.3112 211.5,48.5C 213.002,49.0831 214.335,49.9164 215.5,51C 213.305,51.4094 211.305,50.9094 209.5,49.5C 209.586,48.5041 209.252,47.6708 208.5,47C 207.262,47.0773 206.262,46.9106 205.5,46.5C 207.139,45.6781 208.805,45.0114 210.5,44.5 Z M 216.5,47.5 C 215.078,47.2914 213.745,46.7914 212.5,46C 214.352,45.2274 215.686,45.7274 216.5,47.5 Z M 209.5,49.5 C 209.5,50.1667 209.5,50.8333 209.5,51.5C 204.167,50.8333 204.167,50.1667 209.5,49.5 Z"/></g>
<g><path style="opacity:0.004" fill="#000000" d="M 217.5,42.5 C 218.833,43.1667 218.833,43.1667 217.5,42.5 Z"/></g>
<g><path style="opacity:0.418" fill="#010101" d="M 22.5,43.5 C 22.5,46.1667 22.5,48.8333 22.5,51.5C 25.9496,52.2436 27.6162,50.9103 27.5,47.5C 28.3446,46.3285 29.0113,44.9952 29.5,43.5C 30.5,43.5 31.5,43.5 32.5,43.5C 33.8024,47.562 34.969,51.562 36,55.5C 34.8873,54.695 33.7206,54.0283 32.5,53.5C 30.9723,51.0157 29.3056,51.1823 27.5,54C 25.1667,54.6667 22.8333,54.6667 20.5,54C 19.5442,50.6064 19.2108,47.1064 19.5,43.5C 20.5,43.5 21.5,43.5 22.5,43.5 Z"/></g>
<g><path style="opacity:0.004" fill="#000000" d="M 33.5,43.5 C 34.8333,44.1667 34.8333,44.1667 33.5,43.5 Z"/></g>
<g><path style="opacity:0.004" fill="#000000" d="M 39.5,43.5 C 38.8333,44.1667 38.8333,44.1667 39.5,43.5 Z"/></g>
<g><path style="opacity:0.004" fill="#000000" d="M 48.5,43.5 C 48.8333,43.5 49.1667,43.5 49.5,43.5C 49.3147,44.1701 48.9813,44.1701 48.5,43.5 Z"/></g>
<g><path style="opacity:0.004" fill="#000000" d="M 86.5,43.5 C 85.8333,44.1667 85.8333,44.1667 86.5,43.5 Z"/></g>
<g><path style="opacity:0.004" fill="#000000" d="M 114.5,43.5 C 113.833,44.1667 113.833,44.1667 114.5,43.5 Z"/></g>
<g><path style="opacity:0.536" fill="#010101" d="M 180.5,43.5 C 180.5,47.1667 180.5,50.8333 180.5,54.5C 179.213,53.1286 178.547,51.2953 178.5,49C 178.547,46.7047 179.213,44.8714 180.5,43.5 Z"/></g>
<g><path style="opacity:0.503" fill="#020202" d="M 190.5,52.5 C 189.833,52.5 189.5,52.8333 189.5,53.5C 187.549,54.6414 185.549,54.6414 183.5,53.5C 180.292,48.6654 181.292,44.9987 186.5,42.5C 191.374,44.3802 192.707,47.7135 190.5,52.5 Z M 185.5,45.5 C 186.5,45.5 187.5,45.5 188.5,45.5C 188.5,47.5 188.5,49.5 188.5,51.5C 184.556,51.1156 183.556,49.1156 185.5,45.5 Z"/></g>
<g><path style="opacity:0.402" fill="#010101" d="M 196.5,44.5 C 197.979,48.4699 198.646,48.1366 198.5,43.5C 199.5,43.5 200.5,43.5 201.5,43.5C 201.187,47.0419 201.521,50.3752 202.5,53.5C 202.631,54.2389 202.464,54.9056 202,55.5C 200.887,54.695 199.721,54.0283 198.5,53.5C 197.928,52.0267 197.095,50.6934 196,49.5C 195.902,51.6193 195.069,53.286 193.5,54.5C 192.511,50.8927 192.177,47.226 192.5,43.5C 193.959,43.4326 195.292,43.7659 196.5,44.5 Z M 198.5,43.5 C 198.646,48.1366 197.979,48.4699 196.5,44.5C 197.167,44.1667 197.833,43.8333 198.5,43.5 Z"/></g>
<g><path style="opacity:0.004" fill="#000000" d="M 66.5,45.5 C 65.8333,44.1667 65.8333,44.1667 66.5,45.5 Z"/></g>
<g><path style="opacity:0.004" fill="#000000" d="M 27.5,47.5 C 26.8333,46.1667 26.8333,46.1667 27.5,47.5 Z"/></g>
<g><path style="opacity:0.004" fill="#000000" d="M 45.5,46.5 C 45.1034,47.525 44.4368,47.6917 43.5,47C 44.0944,46.5357 44.7611,46.369 45.5,46.5 Z"/></g>
<g><path style="opacity:0.004" fill="#000000" d="M 45.5,50.5 C 44.475,50.1034 44.3083,49.4368 45,48.5C 45.4643,49.0944 45.631,49.7611 45.5,50.5 Z"/></g>
<g><path style="opacity:0.004" fill="#000000" d="M 73.5,48.5 C 74.8333,49.1667 74.8333,49.1667 73.5,48.5 Z"/></g>
<g><path style="opacity:0.004" fill="#000000" d="M 115.5,48.5 C 114.833,49.1667 114.833,49.1667 115.5,48.5 Z"/></g>
<g><path style="opacity:0.004" fill="#000000" d="M 218.5,48.5 C 219.833,49.1667 219.833,49.1667 218.5,48.5 Z"/></g>
<g><path style="opacity:0.004" fill="#000000" d="M 35.5,49.5 C 36.8333,50.1667 36.8333,50.1667 35.5,49.5 Z"/></g>
<g><path style="opacity:0.004" fill="#000000" d="M 85.5,52.5 C 86.3382,52.8417 86.6716,53.5084 86.5,54.5C 85.8333,54.5 85.1667,54.5 84.5,54.5C 84.5,54.1667 84.5,53.8333 84.5,53.5C 85.1667,53.5 85.5,53.1667 85.5,52.5 Z"/></g>
<g><path style="opacity:0.004" fill="#000000" d="M 122.5,52.5 C 123.713,53.4971 123.546,54.4971 122,55.5C 121.536,54.9056 121.369,54.2389 121.5,53.5C 122.167,53.5 122.5,53.1667 122.5,52.5 Z"/></g>
<g><path style="opacity:0.004" fill="#000000" d="M 153.5,52.5 C 154.833,53.1667 154.833,53.1667 153.5,52.5 Z"/></g>
<g><path style="opacity:0.007" fill="#000000" d="M 168.5,52.5 C 168.833,52.5 169.167,52.5 169.5,52.5C 170.167,52.5 170.5,52.8333 170.5,53.5C 170.5,53.8333 170.5,54.1667 170.5,54.5C 169.5,54.5 168.5,54.5 167.5,54.5C 167.5,54.1667 167.5,53.8333 167.5,53.5C 168.167,53.5 168.5,53.1667 168.5,52.5 Z"/></g>
<g><path style="opacity:0.004" fill="#000000" d="M 190.5,52.5 C 191.713,53.4971 191.546,54.4971 190,55.5C 189.536,54.9056 189.369,54.2389 189.5,53.5C 190.167,53.5 190.5,53.1667 190.5,52.5 Z"/></g>
<g><path style="opacity:0.004" fill="#000000" d="M 29.5,53.5 C 30.8333,54.1667 30.8333,54.1667 29.5,53.5 Z"/></g>
<g><path style="opacity:0.004" fill="#000000" d="M 32.5,53.5 C 31.8333,54.1667 31.8333,54.1667 32.5,53.5 Z"/></g>
<g><path style="opacity:0.004" fill="#000000" d="M 40.5,53.5 C 40.5,53.8333 40.5,54.1667 40.5,54.5C 39.8299,54.0187 39.8299,53.6853 40.5,53.5 Z"/></g>
<g><path style="opacity:0.004" fill="#000000" d="M 54.5,53.5 C 54.631,54.2389 54.4643,54.9056 54,55.5C 53.3083,54.5632 53.475,53.8966 54.5,53.5 Z"/></g>
<g><path style="opacity:0.004" fill="#000000" d="M 67.5,53.5 C 68.525,53.8966 68.6917,54.5632 68,55.5C 67.5357,54.9056 67.369,54.2389 67.5,53.5 Z"/></g>
<g><path style="opacity:0.004" fill="#000000" d="M 77.5,53.5 C 77.631,54.2389 77.4643,54.9056 77,55.5C 76.3083,54.5632 76.475,53.8966 77.5,53.5 Z"/></g>
<g><path style="opacity:0.008" fill="#000000" d="M 108.5,53.5 C 109.833,54.1667 109.833,54.1667 108.5,53.5 Z"/></g>
<g><path style="opacity:0.004" fill="#000000" d="M 112.5,53.5 C 112.631,54.2389 112.464,54.9056 112,55.5C 111.308,54.5632 111.475,53.8966 112.5,53.5 Z"/></g>
<g><path style="opacity:0.004" fill="#000000" d="M 131.5,54.5 C 130.833,53.1667 130.833,53.1667 131.5,54.5 Z"/></g>
<g><path style="opacity:0.004" fill="#000000" d="M 152.5,53.5 C 152.833,53.5 153.167,53.5 153.5,53.5C 153.167,56.1667 152.833,56.1667 152.5,53.5 Z"/></g>
<g><path style="opacity:0.004" fill="#000000" d="M 156.5,53.5 C 155.833,54.1667 155.833,54.1667 156.5,53.5 Z"/></g>
<g><path style="opacity:0.008" fill="#000000" d="M 183.5,53.5 C 183.5,53.8333 183.5,54.1667 183.5,54.5C 182.83,54.0187 182.83,53.6853 183.5,53.5 Z"/></g>
<g><path style="opacity:0.004" fill="#000000" d="M 198.5,53.5 C 197.833,54.1667 197.833,54.1667 198.5,53.5 Z"/></g>
<g><path style="opacity:0.004" fill="#000000" d="M 29.5,54.5 C 28.8333,55.1667 28.8333,55.1667 29.5,54.5 Z"/></g>
<g><path style="opacity:0.004" fill="#000000" d="M 40.5,54.5 C 41.8333,55.1667 41.8333,55.1667 40.5,54.5 Z"/></g>
<g><path style="opacity:0.004" fill="#000000" d="M 50.5,54.5 C 51.8333,55.1667 51.8333,55.1667 50.5,54.5 Z"/></g>
<g><path style="opacity:0.004" fill="#000000" d="M 57.5,54.5 C 58.8333,55.1667 58.8333,55.1667 57.5,54.5 Z"/></g>
<g><path style="opacity:0.004" fill="#000000" d="M 70.5,54.5 C 71.8333,55.1667 71.8333,55.1667 70.5,54.5 Z"/></g>
<g><path style="opacity:0.004" fill="#000000" d="M 84.5,54.5 C 83.8333,55.1667 83.8333,55.1667 84.5,54.5 Z"/></g>
<g><path style="opacity:0.004" fill="#000000" d="M 86.5,54.5 C 87.8333,55.1667 87.8333,55.1667 86.5,54.5 Z"/></g>
<g><path style="opacity:0.004" fill="#000000" d="M 99.5,54.5 C 98.8333,55.1667 98.8333,55.1667 99.5,54.5 Z"/></g>
<g><path style="opacity:0.004" fill="#000000" d="M 129.5,54.5 C 129.833,54.5 130.167,54.5 130.5,54.5C 130.315,55.1701 129.981,55.1701 129.5,54.5 Z"/></g>
<g><path style="opacity:0.004" fill="#000000" d="M 131.5,54.5 C 132.833,55.1667 132.833,55.1667 131.5,54.5 Z"/></g>
<g><path style="opacity:0.004" fill="#000000" d="M 162.5,54.5 C 161.833,55.1667 161.833,55.1667 162.5,54.5 Z"/></g>
<g><path style="opacity:0.004" fill="#000000" d="M 167.5,54.5 C 166.833,55.1667 166.833,55.1667 167.5,54.5 Z"/></g>
<g><path style="opacity:0.004" fill="#000000" d="M 170.5,54.5 C 171.833,55.1667 171.833,55.1667 170.5,54.5 Z"/></g>
<g><path style="opacity:0.004" fill="#000000" d="M 175.5,54.5 C 176.833,55.1667 176.833,55.1667 175.5,54.5 Z"/></g>
<g><path style="opacity:0.004" fill="#000000" d="M 180.5,54.5 C 181.833,55.1667 181.833,55.1667 180.5,54.5 Z"/></g>
<g><path style="opacity:0.004" fill="#000000" d="M 183.5,54.5 C 184.833,55.1667 184.833,55.1667 183.5,54.5 Z"/></g>
<g><path style="opacity:0.004" fill="#000000" d="M 195.5,54.5 C 196.833,55.1667 196.833,55.1667 195.5,54.5 Z"/></g>
<g><path style="opacity:0.004" fill="#000000" d="M 210.5,54.5 C 211.833,55.1667 211.833,55.1667 210.5,54.5 Z"/></g>
<g><path style="opacity:0.004" fill="#000000" d="M 217.5,54.5 C 216.833,55.1667 216.833,55.1667 217.5,54.5 Z"/></g>
</svg>
